{
  "asset": {
    "version": "2.0",
    "generator": "THREE.GLTFExporter r181"
  },
  "scenes": [
    {
      "name": "AuxScene",
      "nodes": [
        0
      ]
    }
  ],
  "scene": 0,
  "nodes": [
    {
      "children": [
        1
      ]
    },
    {
      "matrix": [
        0.05,
        0,
        0,
        0,
        0,
        -0.05,
        0,
        0,
        0,
        0,
        0.05,
        0,
        0,
        0,
        0,
        1
      ],
      "mesh": 0
    }
  ],
  "bufferViews": [
    {
      "buffer": 0,
      "byteOffset": 0,
      "byteLength": 73728,
      "target": 34962,
      "byteStride": 12
    },
    {
      "buffer": 0,
      "byteOffset": 73728,
      "byteLength": 49152,
      "target": 34962,
      "byteStride": 8
    },
    {
      "buffer": 0,
      "byteOffset": 122880,
      "byteLength": 73728,
      "target": 34962,
      "byteStride": 12
    }
  ],
  "buffers": [
    {
      "byteLength": 196608,
      "uri": "data:application/octet-stream;base64,"
    }
  ],
  "accessors": [
    {
      "bufferView": 0,
      "componentType": 5126,
      "count": 6144,
      "max": [
        59.83689498901367,
        128.22698974609375,
        5.149999618530273
      ],
      "min": [
        -59.836891174316406,
        -128.2273406982422,
        -5.150000095367432
      ],
      "type": "VEC3"
    },
    {
      "bufferView": 1,
      "componentType": 5126,
      "count": 6144,
      "max": [
        256.3039855957031,
        256.15399169921875
      ],
      "min": [
        0.048984721302986145,
        -9.199999809265137
      ],
      "type": "VEC2"
    },
    {
      "bufferView": 2,
      "componentType": 5126,
      "count": 6144,
      "max": [
        1,
        1,
        1
      ],
      "min": [
        -1,
        -0.9977770447731018,
        -1
      ],
      "type": "VEC3"
    }
  ],
  "materials": [
    {
      "pbrMetallicRoughness": {
        "baseColorFactor": [
          0,
          0.8468732315065057,
          0.12743768042608497,
          1
        ],
        "metallicFactor": 0,
        "roughnessFactor": 0.45
      },
      "doubleSided": true
    }
  ],
  "meshes": [
    {
      "primitives": [
        {
          "mode": 4,
          "attributes": {
            "POSITION": 0,
            "TEXCOORD_0": 1,
            "NORMAL": 2
          },
          "material": 0
        }
      ]
    }
  ]
}